<svg width="292" height="55" viewBox="0 0 292 55" fill="none" xmlns="http://www.w3.org/2000/svg">
<path d="M25.6 2.70001C26.5 0.400012 26.8 0 27.3 0C28 0 28.3 1 29 2.5C30.3 5.4 41.6 34 45.9 44.5C48.5 50.7 50.4 51.6 51.9 52.1C52.9 52.4 54 52.5 54.7 52.5C55.1 52.5 55.6 52.7 55.6 53.1C55.6 53.5 54.8 53.7 54 53.7C53 53.7 47.7 53.7 42.8 53.5C41.4 53.4 40.3 53.4 40.3 53C40.3 52.7 40.5 52.7 40.8 52.5C41.2 52.3 41.9 51.8 41.4 50.6L35.1 34.7C34.9 34.4 34.9 34.3 34.5 34.3H18.2C17.9 34.3 17.6 34.5 17.5 34.9L13.5 46C12.9 47.7 12.5 49.4 12.5 50.6C12.5 52 13.7 52.5 14.9 52.5H15.5C16.1 52.5 16.2 52.7 16.2 53.1C16.2 53.5 15.8 53.7 15.2 53.7C13.5 53.7 9.69999 53.5 8.89999 53.5C8.19999 53.5 4.6 53.7 1.8 53.7C0.900003 53.7 0.399994 53.5 0.399994 53.1C0.399994 52.8 0.7 52.5 1 52.5C1.5 52.5 2.50001 52.4 3.10001 52.3C6.30001 51.9 7.7 49.5 9 46L25.6 2.70001ZM33.5 31.5C33.8 31.5 33.8 31.3 33.7 31L26.7 12C26.3 10.9 25.9 10.9 25.5 12L18.9 31C18.8 31.3 18.9 31.5 19.1 31.5H33.5Z" fill="black"/>
<path d="M61.7 21.4C61.7 10.7 61.7 8.7 61.5 6.5C61.3 4.1 60.9 3.00001 58.6 2.70001C58 2.60001 56.8 2.5 56.2 2.5C56 2.5 55.6 2.19999 55.6 1.89999C55.6 1.49999 55.9 1.29999 56.7 1.29999C59.9 1.29999 64.6 1.5 65 1.5C65.7 1.5 71.7 1.29999 73.8 1.29999C78.3 1.29999 83.3 1.69999 87 4.29999C88.8 5.59999 91.9 8.90001 91.9 13.7C91.9 18.8 89.8 23.8 83.2 29.5C89 36.8 93.9 43.1 98 47.4C101.8 51.3 104.1 52 105.9 52.2C107.3 52.4 108 52.4 108.4 52.4C108.8 52.4 109 52.7 109 53C109 53.4 108.6 53.6 107.3 53.6H102.9C98.9 53.6 97.1 53.2 95.4 52.2C92.3 50.6 89.8 47.2 85.8 42C82.8 38.3 79.7 33.8 78.2 31.9C77.9 31.6 77.7 31.5 77.2 31.5L68.2 31.3C67.9 31.3 67.7 31.5 67.7 31.9V33.5C67.7 40.2 67.7 45.5 68 48.4C68.2 50.4 68.6 51.7 70.8 52.1C71.8 52.3 73.3 52.4 73.9 52.4C74.4 52.4 74.5 52.7 74.5 53C74.5 53.3 74.2 53.6 73.4 53.6C69.5 53.6 65 53.4 64.7 53.4C64.6 53.4 59.9 53.6 57.7 53.6C57 53.6 56.6 53.4 56.6 53C56.6 52.8 56.8 52.4 57.2 52.4C57.8 52.4 58.7 52.2 59.4 52.1C60.8 51.8 60.9 50.5 61.2 48.4C61.6 45.6 61.6 40.1 61.6 33.4V21.4H61.7ZM67.8 27.2C67.8 27.6 68 27.9 68.3 28.1C69.3 28.7 73 29.2 76.1 29.2C77.8 29.2 79.7 29.1 81.4 28C83.8 26.4 85.7 22.7 85.7 17.4C85.7 8.79999 81 3.79999 73.5 3.79999C71.4 3.79999 69.2 4.00001 68.4 4.20001C68.1 4.40001 67.8 4.6 67.8 5V27.2V27.2Z" fill="black"/>
<path d="M124.7 33.6C124.7 40.3 124.7 45.7 125 48.6C125.2 50.6 125.6 51.9 127.7 52.3C128.7 52.5 130.3 52.6 130.9 52.6C131.4 52.6 131.5 52.9 131.5 53.2C131.5 53.5 131.2 53.8 130.4 53.8C126.5 53.8 122.1 53.6 121.6 53.6C121.3 53.6 116.4 53.8 114.3 53.8C113.5 53.8 113.2 53.6 113.2 53.2C113.2 53 113.4 52.7 113.8 52.7C114.4 52.7 115.2 52.5 115.9 52.4C117.3 52.1 117.7 50.7 118 48.7C118.3 45.9 118.3 40.4 118.3 33.7V4.70001L108.1 4.89999C103.7 4.99999 102 5.50001 101 7.10001C100.2 8.30001 100.1 8.79999 99.9 9.29999C99.7 9.89999 99.5 10 99.2 10C99 10 98.7 9.79999 98.7 9.39999C98.7 8.69999 100.1 2.49999 100.2 1.89999C100.3 1.49999 100.7 0.600006 100.9 0.600006C101.4 0.600006 102.1 1.19999 104 1.39999C106 1.59999 108.7 1.70001 109.5 1.70001H136.2C138.5 1.70001 140.1 1.49999 141.3 1.39999C142.3 1.19999 143 1.10001 143.3 1.10001C143.6 1.10001 143.6 1.49999 143.6 1.89999C143.6 3.99999 143.4 8.99999 143.4 9.79999C143.4 10.4 143.1 10.7 142.8 10.7C142.5 10.7 142.3 10.5 142.2 9.5L142.1 8.79999C141.9 6.69999 140.3 5.1 133.6 5L124.8 4.79999V33.6H124.7Z" fill="black"/>
<path d="M153.1 21.4C153.1 10.7 153.1 8.7 152.9 6.5C152.7 4.1 152.3 2.8 150 2.5C149.4 2.4 148.2 2.29999 147.6 2.29999C147.4 2.29999 147 2.09999 147 1.89999C147 1.49999 147.3 1.29999 148.1 1.29999C151.3 1.29999 155.9 1.5 156.3 1.5C158 1.5 161.3 1.29999 164.6 1.29999C176.4 1.29999 179.5 8.19999 179.5 11.9C179.5 17.3 176 20.8 172.4 24C177.8 25.6 184.8 30.6 184.8 38.4C184.8 46.1 179.1 53.8 167.1 53.8C165.8 53.8 163.2 53.7 161 53.6C158.8 53.5 156.7 53.4 156.4 53.4C156.2 53.4 155 53.5 153.5 53.5C152.1 53.6 150.4 53.7 149.2 53.7C148.5 53.7 148.1 53.5 148.1 53.1C148.1 52.9 148.3 52.7 148.7 52.7C149.3 52.7 150.2 52.5 150.9 52.4C152.3 52.2 152.4 50.6 152.7 48.6C153.1 45.8 153.1 40.3 153.1 33.7V21.4V21.4ZM159.2 22.9C159.2 23.4 159.4 23.5 159.7 23.6C160.1 23.7 161.4 23.9 164 23.9C167.9 23.9 169.5 23.7 170.9 22.1C172.4 20.4 173.6 18 173.6 14.7C173.6 9.40001 170.7 3.60001 163.6 3.60001C162.8 3.60001 161.1 3.69999 160 3.89999C159.4 4.09999 159.1 4.20001 159.1 4.60001V22.9H159.2ZM159.2 30.5C159.2 35.9 159.2 44.1 159.3 45.2C159.5 48.5 159.5 49.3 161.7 50.4C163.6 51.3 166.6 51.4 167.9 51.4C172.6 51.4 178.3 49.6 178.3 40.8C178.3 37.7 177.1 31.8 171.6 28.2C169.2 26.7 166.9 26.7 165.3 26.4C164.4 26.2 160.9 26.2 159.8 26.2C159.6 26.2 159.4 26.4 159.4 26.7V30.5H159.2Z" fill="black"/>
<path d="M192.3 21.4C192.3 10.7 192.3 8.7 192.1 6.5C191.9 4.3 191.5 3.00001 189.2 2.70001C188.6 2.60001 187.4 2.5 186.8 2.5C186.6 2.5 186.2 2.19999 186.2 1.89999C186.2 1.49999 186.5 1.29999 187.3 1.29999C190.5 1.29999 194.8 1.5 195.4 1.5C196 1.5 200.5 1.29999 202.5 1.29999C203.3 1.29999 203.7 1.49999 203.7 1.89999C203.7 2.09999 203.4 2.5 203.1 2.5C202.6 2.5 202.2 2.50001 201.3 2.70001C199.5 3.00001 199.1 4.2 198.9 6.5C198.7 8.7 198.7 10.6 198.7 21.4V31.1C198.7 41.1 200.9 45.2 203.9 48C207.4 51.2 210.4 51.7 214.4 51.7C218.7 51.7 222.9 49.8 225.3 46.8C228.6 42.8 229.3 37.1 229.3 30.1V21.4C229.3 10.7 229.2 8.7 229.1 6.5C229 4.3 228.6 3.00001 226.3 2.70001C225.7 2.60001 224.5 2.5 223.9 2.5C223.6 2.5 223.3 2.19999 223.3 1.89999C223.3 1.49999 223.6 1.29999 224.4 1.29999C227.5 1.29999 231.6 1.5 232 1.5C232.5 1.5 235.9 1.29999 237.9 1.29999C238.7 1.29999 239 1.49999 239 1.89999C239 2.09999 238.8 2.5 238.4 2.5C237.9 2.5 237.5 2.50001 236.6 2.70001C234.7 3.10001 234.3 4.2 234.1 6.5C233.9 8.7 234 10.6 234 21.4V28.8C234 36.3 233 44.6 227.4 49.5C222.3 54 216.8 54.5 212.6 54.5C210.3 54.5 202.9 54.3 197.9 49.6C194.4 46.4 191.7 41.6 191.7 31.5V21.4H192.3Z" fill="black"/>
<path d="M262.7 35.7C262.7 32 262.2 30.6 261.2 28.6C260.6 27.5 251.1 12.2 248.7 8.5C247 5.9 245.3 4.4 244 3.5C243 2.8 241.6 2.5 241 2.5C240.6 2.5 240.3 2.19999 240.3 1.79999C240.3 1.39999 240.5 1.29999 241.2 1.29999C242.6 1.29999 247.9 1.5 248.2 1.5C248.7 1.5 251.6 1.29999 254.3 1.29999C255.1 1.29999 255.3 1.49999 255.3 1.79999C255.3 1.99999 254.8 2.3 254.2 2.5C253.6 2.7 253.3 3.10001 253.3 3.60001C253.3 4.60001 253.8 5.39999 254.3 6.29999L267.1 27.8C268.5 24.9 277.4 10.1 278.7 7.79999C279.6 6.29999 279.9 5.10001 279.9 4.20001C279.9 3.20001 279.6 2.69999 278.8 2.39999C278.2 2.19999 277.8 1.90001 277.8 1.60001C277.8 1.40001 278.2 1.20001 278.9 1.20001C280.7 1.20001 283.2 1.39999 283.8 1.39999C284.3 1.39999 289.3 1.20001 290.7 1.20001C291.2 1.20001 291.6 1.40001 291.6 1.60001C291.6 1.90001 291.3 2.29999 290.7 2.29999C289.9 2.29999 288.5 2.50001 287.4 3.20001C286 4.00001 285.4 4.70001 283.9 6.60001C281.6 9.40001 271.6 25.6 270.2 28.5C269 30.9 269.3 33.1 269.3 35.4V41.3C269.3 42.4 269.3 45.4 269.5 48.2C269.7 50.2 270.1 51.5 272.2 51.9C273.2 52.1 274.8 52.2 275.4 52.2C275.8 52.2 276 52.5 276 52.8C276 53.1 275.6 53.4 274.9 53.4C271 53.4 266.4 53.2 266 53.2C265.7 53.2 261.2 53.4 259.1 53.4C258.3 53.4 258 53.2 258 52.8C258 52.6 258.2 52.2 258.6 52.2C259.2 52.2 260 52 260.7 51.9C262.1 51.6 262.6 50.3 262.8 48.2C263 45.4 263 42.4 263 41.3V35.7H262.7Z" fill="black"/>
</svg>
